HIERARCHY
ROOT Hips
{
	OFFSET 0.053599 88.859886 3.107447
	CHANNELS 6 Xposition Yposition Zposition Zrotation Yrotation Xrotation 
	JOINT Spine
	{
		OFFSET -0.000000 8.814246 -2.080107
		CHANNELS 3 Zrotation Yrotation Xrotation
		JOINT Spine1
		{
			OFFSET 0.000000 8.844141 0.000000
			CHANNELS 3 Zrotation Yrotation Xrotation
			JOINT Spine2
			{
				OFFSET -0.000000 11.682268 0.000000
				CHANNELS 3 Zrotation Yrotation Xrotation
				JOINT Spine3
				{
					OFFSET 0.000000 11.746700 0.000000
					CHANNELS 3 Zrotation Yrotation Xrotation
					JOINT Neck
					{
						OFFSET -0.000000 17.658264 -0.000000
						CHANNELS 3 Zrotation Yrotation Xrotation
						JOINT Neck1
						{
							OFFSET -0.000000 5.101515 -0.000000
							CHANNELS 3 Zrotation Yrotation Xrotation
							JOINT Head
							{
								OFFSET 0.000000 5.101515 0.000000
								CHANNELS 3 Zrotation Yrotation Xrotation
								JOINT HeadEnd
								{
									OFFSET 0.000000 11.655085 0.000000
									CHANNELS 3 Zrotation Yrotation Xrotation
									End Site
									{
										OFFSET 0.000000 0.000000 0.000000
									}
								}
							}
						}
					}
					JOINT RightShoulder
					{
						OFFSET -2.625389 11.175210 0.000000
						CHANNELS 3 Zrotation Yrotation Xrotation
						JOINT RightArm
						{
							OFFSET -0.000000 10.434715 -0.000000
							CHANNELS 3 Zrotation Yrotation Xrotation
							JOINT RightForeArm
							{
								OFFSET -0.000000 29.628420 0.000000
								CHANNELS 3 Zrotation Yrotation Xrotation
								JOINT RightHand
								{
									OFFSET -0.000000 22.857611 0.000000
									CHANNELS 3 Zrotation Yrotation Xrotation
									JOINT RightHandThumb1
									{
										OFFSET -2.867323 3.959563 2.944291
										CHANNELS 3 Zrotation Yrotation Xrotation
										JOINT RightHandThumb2
										{
											OFFSET 0.000000 3.350399 0.000000
											CHANNELS 3 Zrotation Yrotation Xrotation
											JOINT RightHandThumb3
											{
												OFFSET 0.000000 3.756509 -0.000000
												CHANNELS 3 Zrotation Yrotation Xrotation
												JOINT RightHandThumb4
												{
													OFFSET 0.000000 3.147345 0.000000
													CHANNELS 3 Zrotation Yrotation Xrotation
													End Site
													{
														OFFSET 0.000000 0.000000 0.000000
													}
												}
											}
										}
									}
									JOINT RightHandIndex1
									{
										OFFSET -0.086752 10.030893 2.345280
										CHANNELS 3 Zrotation Yrotation Xrotation
										JOINT RightHandIndex2
										{
											OFFSET -0.000000 4.061090 0.000000
											CHANNELS 3 Zrotation Yrotation Xrotation
											JOINT RightHandIndex3
											{
												OFFSET -0.000000 3.248873 0.000000
												CHANNELS 3 Zrotation Yrotation Xrotation
												JOINT RightHandIndex4
												{
													OFFSET 0.000000 2.639709 -0.000000
													CHANNELS 3 Zrotation Yrotation Xrotation
													End Site
													{
														OFFSET 0.000000 0.000000 0.000000
													}
												}
											}
										}
									}
									JOINT RightHandMiddle1
									{
										OFFSET 0.104102 9.502952 0.006768
										CHANNELS 3 Zrotation Yrotation Xrotation
										JOINT RightHandMiddle2
										{
											OFFSET 0.000000 4.568727 0.000000
											CHANNELS 3 Zrotation Yrotation Xrotation
											JOINT RightHandMiddle3
											{
												OFFSET 0.000000 3.654981 -0.000000
												CHANNELS 3 Zrotation Yrotation Xrotation
												JOINT RightHandMiddle4
												{
													OFFSET -0.000000 2.741236 -0.000000
													CHANNELS 3 Zrotation Yrotation Xrotation
													End Site
													{
														OFFSET 0.000000 0.000000 0.000000
													}
												}
											}
										}
									}
									JOINT RightHandRing1
									{
										OFFSET 0.086752 8.921708 -2.267442
										CHANNELS 3 Zrotation Yrotation Xrotation
										JOINT RightHandRing2
										{
											OFFSET -0.000000 4.061090 0.000000
											CHANNELS 3 Zrotation Yrotation Xrotation
											JOINT RightHandRing3
											{
												OFFSET 0.000000 3.654981 -0.000000
												CHANNELS 3 Zrotation Yrotation Xrotation
												JOINT RightHandRing4
												{
													OFFSET 0.000000 2.741236 -0.000000
													CHANNELS 3 Zrotation Yrotation Xrotation
													End Site
													{
														OFFSET 0.000000 0.000000 0.000000
													}
												}
											}
										}
									}
									JOINT RightHandPinky1
									{
										OFFSET -0.173504 7.976997 -4.467199
										CHANNELS 3 Zrotation Yrotation Xrotation
										JOINT RightHandPinky2
										{
											OFFSET 0.000000 3.350399 -0.000000
											CHANNELS 3 Zrotation Yrotation Xrotation
											JOINT RightHandPinky3
											{
												OFFSET -0.000000 2.842763 0.000000
												CHANNELS 3 Zrotation Yrotation Xrotation
												JOINT RightHandPinky4
												{
													OFFSET -0.000000 2.639709 0.000000
													CHANNELS 3 Zrotation Yrotation Xrotation
													End Site
													{
														OFFSET 0.000000 0.000000 0.000000
													}
												}
											}
										}
									}
									JOINT RightForeArmEnd
									{
										OFFSET 0.000000 0.000000 0.000000
										CHANNELS 3 Zrotation Yrotation Xrotation
										End Site
										{
											OFFSET 0.000000 0.000000 0.000000
										}
									}
								}
								JOINT RightArmEnd
								{
									OFFSET 0.000000 0.000000 0.000000
									CHANNELS 3 Zrotation Yrotation Xrotation
									End Site
									{
										OFFSET 0.000000 0.000000 0.000000
									}
								}
							}
						}
					}
					JOINT LeftShoulder
					{
						OFFSET 2.625389 11.175210 0.000000
						CHANNELS 3 Zrotation Yrotation Xrotation
						JOINT LeftArm
						{
							OFFSET 0.000000 10.813635 -0.000000
							CHANNELS 3 Zrotation Yrotation Xrotation
							JOINT LeftForeArm
							{
								OFFSET 0.000000 28.724781 0.000000
								CHANNELS 3 Zrotation Yrotation Xrotation
								JOINT LeftHand
								{
									OFFSET 0.644384 25.716167 -0.328871
									CHANNELS 3 Zrotation Yrotation Xrotation
									JOINT LeftHandThumb1
									{
										OFFSET 2.867323 3.959563 2.944291
										CHANNELS 3 Zrotation Yrotation Xrotation
										JOINT LeftHandThumb2
										{
											OFFSET 0.000000 3.350399 0.000000
											CHANNELS 3 Zrotation Yrotation Xrotation
											JOINT LeftHandThumb3
											{
												OFFSET -0.000000 3.756509 0.000000
												CHANNELS 3 Zrotation Yrotation Xrotation
												JOINT LeftHandThumb4
												{
													OFFSET -0.000000 3.100000 0.000000
													CHANNELS 3 Zrotation Yrotation Xrotation
													End Site
													{
														OFFSET 0.000000 0.000000 0.000000
													}
												}
											}
										}
									}
									JOINT LeftHandIndex1
									{
										OFFSET 0.086752 10.030893 2.345280
										CHANNELS 3 Zrotation Yrotation Xrotation
										JOINT LeftHandIndex2
										{
											OFFSET -0.000000 4.061090 -0.000000
											CHANNELS 3 Zrotation Yrotation Xrotation
											JOINT LeftHandIndex3
											{
												OFFSET 0.000000 3.248873 -0.000000
												CHANNELS 3 Zrotation Yrotation Xrotation
												JOINT LeftHandIndex4
												{
													OFFSET 0.000000 2.639709 -0.000000
													CHANNELS 3 Zrotation Yrotation Xrotation
													End Site
													{
														OFFSET 0.000000 0.000000 0.000000
													}
												}
											}
										}
									}
									JOINT LeftHandMiddle1
									{
										OFFSET -0.104102 9.502952 0.006768
										CHANNELS 3 Zrotation Yrotation Xrotation
										JOINT LeftHandMiddle2
										{
											OFFSET -0.000000 4.568727 -0.000000
											CHANNELS 3 Zrotation Yrotation Xrotation
											JOINT LeftHandMiddle3
											{
												OFFSET 0.000000 3.654981 0.000000
												CHANNELS 3 Zrotation Yrotation Xrotation
												JOINT LeftHandMiddle4
												{
													OFFSET 0.000000 2.741236 -0.000000
													CHANNELS 3 Zrotation Yrotation Xrotation
													End Site
													{
														OFFSET 0.000000 0.000000 0.000000
													}
												}
											}
										}
									}
									JOINT LeftHandRing1
									{
										OFFSET -0.086752 8.921708 -2.267442
										CHANNELS 3 Zrotation Yrotation Xrotation
										JOINT LeftHandRing2
										{
											OFFSET 0.000000 4.061090 0.000000
											CHANNELS 3 Zrotation Yrotation Xrotation
											JOINT LeftHandRing3
											{
												OFFSET 0.000000 3.654981 0.000000
												CHANNELS 3 Zrotation Yrotation Xrotation
												JOINT LeftHandRing4
												{
													OFFSET 0.000000 2.741236 0.000000
													CHANNELS 3 Zrotation Yrotation Xrotation
													End Site
													{
														OFFSET 0.000000 0.000000 0.000000
													}
												}
											}
										}
									}
									JOINT LeftHandPinky1
									{
										OFFSET 0.173504 7.976997 -4.467199
										CHANNELS 3 Zrotation Yrotation Xrotation
										JOINT LeftHandPinky2
										{
											OFFSET -0.000000 3.350399 -0.000000
											CHANNELS 3 Zrotation Yrotation Xrotation
											JOINT LeftHandPinky3
											{
												OFFSET 0.000000 2.842763 0.000000
												CHANNELS 3 Zrotation Yrotation Xrotation
												JOINT LeftHandPinky4
												{
													OFFSET -0.000000 2.639709 -0.000000
													CHANNELS 3 Zrotation Yrotation Xrotation
													End Site
													{
														OFFSET 0.000000 0.000000 0.000000
													}
												}
											}
										}
									}
									JOINT LeftForeArmEnd
									{
										OFFSET 0.000000 0.000000 0.000000
										CHANNELS 3 Zrotation Yrotation Xrotation
										End Site
										{
											OFFSET 0.000000 0.000000 0.000000
										}
									}
								}
								JOINT LeftArmEnd
								{
									OFFSET 0.000000 0.000000 0.000000
									CHANNELS 3 Zrotation Yrotation Xrotation
									End Site
									{
										OFFSET 0.000000 0.000000 0.000000
									}
								}
							}
						}
					}
				}
			}
		}
	}
	JOINT RightUpLeg
	{
		OFFSET -11.289943 0.000000 0.000000
		CHANNELS 3 Zrotation Yrotation Xrotation
		JOINT RightLeg
		{
			OFFSET 0.000000 -38.200325 0.000000
			CHANNELS 3 Zrotation Yrotation Xrotation
			JOINT RightFoot
			{
				OFFSET -0.000000 -39.900856 -0.000000
				CHANNELS 3 Zrotation Yrotation Xrotation
				JOINT RightToeBase
				{
					OFFSET 0.000000 0.000000 15.261641
					CHANNELS 3 Zrotation Yrotation Xrotation
					JOINT RightToeBaseEnd
					{
						OFFSET 0.000000 0.000000 7.370709
						CHANNELS 3 Zrotation Yrotation Xrotation
						End Site
						{
							OFFSET 0.000000 0.000000 0.000000
						}
					}
				}
				JOINT RightLegEnd
				{
					OFFSET 0.000000 0.000000 0.000000
					CHANNELS 3 Zrotation Yrotation Xrotation
					End Site
					{
						OFFSET 0.000000 0.000000 0.000000
					}
				}
			}
			JOINT RightUpLegEnd
			{
				OFFSET 0.000000 0.000000 0.000000
				CHANNELS 3 Zrotation Yrotation Xrotation
				End Site
				{
					OFFSET 0.000000 0.000000 0.000000
				}
			}
		}
	}
	JOINT LeftUpLeg
	{
		OFFSET 11.315661 -0.000000 0.000000
		CHANNELS 3 Zrotation Yrotation Xrotation
		JOINT LeftLeg
		{
			OFFSET -0.000000 -38.200325 -0.000000
			CHANNELS 3 Zrotation Yrotation Xrotation
			JOINT LeftFoot
			{
				OFFSET 0.000000 -39.900856 -0.000000
				CHANNELS 3 Zrotation Yrotation Xrotation
				JOINT LeftToeBase
				{
					OFFSET -0.000000 -0.000000 15.261641
					CHANNELS 3 Zrotation Yrotation Xrotation
					JOINT LeftToeBaseEnd
					{
						OFFSET 0.000000 -0.000000 7.539996
						CHANNELS 3 Zrotation Yrotation Xrotation
						End Site
						{
							OFFSET 0.000000 0.000000 0.000000
						}
					}
				}
				JOINT LeftLegEnd
				{
					OFFSET 0.000000 0.000000 0.000000
					CHANNELS 3 Zrotation Yrotation Xrotation
					End Site
					{
						OFFSET 0.000000 0.000000 0.000000
					}
				}
			}
			JOINT LeftUpLegEnd
			{
				OFFSET 0.000000 0.000000 0.000000
				CHANNELS 3 Zrotation Yrotation Xrotation
				End Site
				{
					OFFSET 0.000000 0.000000 0.000000
				}
			}
		}
	}
}
MOTION
Frames: 4
Frame Time: 0.016667
0.131555 88.895966 2.672394 -0.023470 -0.328275 -11.059813 0.978724 0.009323 6.864512 -0.700049 0.327505 3.339097 0.088156 -0.513719 4.715653 -1.136480 0.291761 4.948709 1.795976 0.534262 4.570463 0.318075 1.283989 -3.626068 -0.250337 -0.693109 -19.703821 0.000000 0.000000 0.000000 92.161263 -0.374891 10.317606 69.026741 -21.559467 3.959291 0.096869 16.443497 28.873171 -16.692362 4.461845 -2.694738 15.140256 31.792238 66.866455 -2.872556 -3.295032 -6.192283 -1.974529 -2.125361 -4.138751 0.000000 0.000000 0.000000 -26.268738 -4.401061 14.280645 0.787429 0.533579 0.367315 0.650058 0.075367 0.342560 0.000000 0.000000 0.000000 -24.929455 0.808430 9.086820 0.097556 0.535187 0.102593 0.642247 0.024513 0.090858 0.000000 0.000000 0.000000 -22.511673 8.339271 2.922316 0.640816 -1.037974 -0.231905 0.624347 -0.052750 -0.127334 0.000000 0.000000 0.000000 -20.930285 16.318583 -3.984312 0.908934 -2.027123 -0.729189 0.845075 -0.024503 -0.587874 0.000000 0.000000 0.000000 0.000000 0.000000 0.000000 0.000000 0.000000 0.000000 -90.110794 0.241724 5.742570 -70.651276 17.891832 -3.837325 0.193166 -9.766417 56.653645 25.000189 -1.714837 -6.162748 -14.434448 -32.106514 67.695366 1.815345 1.634203 -3.526902 1.193099 1.150595 -2.429774 0.000000 0.000000 0.000000 27.736313 -13.791179 20.469545 -0.898594 0.539965 -0.297898 -0.821472 0.058080 -0.320162 0.000000 0.000000 0.000000 26.810129 -8.273226 13.649882 -0.919182 0.519994 -0.137683 -0.931940 0.034665 -0.097258 0.000000 0.000000 0.000000 23.216703 0.384559 5.438139 -1.828404 -1.057471 0.307629 -2.103315 -0.047406 0.211960 0.000000 0.000000 0.000000 17.308649 10.390782 -3.048877 -3.169702 -2.021519 1.044400 -2.950938 0.040625 0.928791 0.000000 0.000000 0.000000 0.000000 0.000000 0.000000 0.000000 0.000000 0.000000 -1.074710 -10.335311 15.183823 -0.062323 -0.689966 4.694442 -2.746578 -8.342678 17.766615 -0.897544 0.765124 -18.517965 0.000000 0.000000 0.000000 0.000000 0.000000 0.000000 0.000000 0.000000 0.000000 -1.209459 -5.805591 10.279616 0.069405 0.354311 9.090391 3.822689 -1.074579 17.136641 0.307580 -0.505774 -20.348747 0.000000 0.000000 0.000000 0.000000 0.000000 0.000000 0.000000 0.000000 0.000000 
0.137080 88.897255 2.671407 -0.007535 -0.321082 -11.115721 0.974369 0.006872 6.869290 -0.708270 0.328000 3.357587 0.080784 -0.527533 4.734045 -1.140446 0.281432 4.956609 1.763853 0.546800 4.604938 0.329269 1.290391 -3.611022 -0.258636 -0.712075 -19.685797 0.000000 0.000000 0.000000 92.199097 -0.387492 10.315909 68.954880 -21.559776 3.973871 0.105837 16.499163 29.004332 -16.705538 4.517296 -2.723524 15.161040 31.783136 66.843521 -2.905705 -3.333310 -6.266028 -1.999321 -2.153385 -4.190125 0.000000 0.000000 0.000000 -26.074036 -4.426703 14.191611 0.767174 0.533925 0.365804 0.623493 0.076294 0.342417 0.000000 0.000000 0.000000 -24.706450 0.776664 9.028785 0.079865 0.535905 0.101275 0.630978 0.025257 0.089885 0.000000 0.000000 0.000000 -22.212030 8.297608 2.917372 0.647423 -1.038695 -0.230345 0.621438 -0.053286 -0.125584 0.000000 0.000000 0.000000 -20.585682 16.283947 -3.956403 0.942829 -2.028769 -0.720771 0.873776 -0.027561 -0.577871 0.000000 0.000000 0.000000 0.000000 0.000000 0.000000 0.000000 0.000000 0.000000 -90.137749 0.254207 5.744303 -70.575508 17.850859 -3.830586 0.170873 -9.780070 56.768333 25.048372 -2.019343 -6.225146 -14.457609 -32.098209 67.677116 1.848406 1.675248 -3.591188 1.216155 1.177356 -2.476455 0.000000 0.000000 0.000000 27.572962 -13.757421 20.397034 -0.855422 0.540008 -0.295440 -0.789005 0.058210 -0.316941 0.000000 0.000000 0.000000 26.623697 -8.244343 13.597994 -0.885314 0.520206 -0.136458 -0.898597 0.034951 -0.096403 0.000000 0.000000 0.000000 22.966263 0.422707 5.418863 -1.812525 -1.057596 0.306560 -2.083311 -0.047473 0.211115 0.000000 0.000000 0.000000 16.994223 10.439510 -3.059952 -3.189141 -2.019977 1.040152 -2.966340 0.041161 0.925736 0.000000 0.000000 0.000000 0.000000 0.000000 0.000000 0.000000 0.000000 0.000000 -1.112194 -10.348119 15.239977 -0.062585 -0.692991 4.697152 -2.724670 -8.336658 17.753931 -0.901202 0.766934 -18.509251 0.000000 0.000000 0.000000 0.000000 0.000000 0.000000 0.000000 0.000000 0.000000 -1.242341 -5.798529 10.331639 0.069076 0.351882 9.106843 3.836286 -1.054569 17.111452 0.301900 -0.504804 -20.348808 0.000000 0.000000 0.000000 0.000000 0.000000 0.000000 0.000000 0.000000 0.000000 
0.143615 88.898682 2.670885 0.008636 -0.313868 -11.170299 0.969165 0.004595 6.874796 -0.716855 0.328381 3.375833 0.073513 -0.542295 4.754249 -1.145285 0.270440 4.963962 1.731053 0.556790 4.631512 0.339583 1.293925 -3.600490 -0.266416 -0.730877 -19.666300 0.000000 0.000000 0.000000 92.235878 -0.401027 10.316152 68.883842 -21.559555 3.997606 0.115256 16.561590 29.136923 -16.678434 4.613556 -2.771189 15.185664 31.772406 66.816132 -2.944679 -3.378554 -6.352380 -2.028071 -2.186029 -4.250426 0.000000 0.000000 0.000000 -25.833681 -4.460714 14.095146 0.746201 0.534540 0.364411 0.595711 0.077455 0.342480 0.000000 0.000000 0.000000 -24.436354 0.737242 8.966915 0.060560 0.536727 0.100214 0.618385 0.026053 0.089114 0.000000 0.000000 0.000000 -21.859175 8.248287 2.914328 0.650888 -1.039535 -0.229193 0.616142 -0.053854 -0.124193 0.000000 0.000000 0.000000 -20.183107 16.242085 -3.923844 0.974682 -2.030848 -0.713342 0.900335 -0.030874 -0.568987 0.000000 0.000000 0.000000 0.000000 0.000000 0.000000 0.000000 0.000000 0.000000 -90.162476 0.266019 5.748066 -70.510071 17.803482 -3.827008 0.148900 -9.794571 56.888298 25.061548 -2.385842 -6.308142 -14.483796 -32.088184 67.654800 1.887077 1.722355 -3.666927 1.243151 1.208548 -2.530793 0.000000 0.000000 0.000000 27.361586 -13.717350 20.316214 -0.811727 0.540250 -0.293098 -0.755694 0.058592 -0.314047 0.000000 0.000000 0.000000 26.388472 -8.208171 13.539694 -0.851348 0.520490 -0.135347 -0.865015 0.035280 -0.095681 0.000000 0.000000 0.000000 22.657600 0.470704 5.398514 -1.798336 -1.057823 0.305803 -2.064767 -0.047567 0.210470 0.000000 0.000000 0.000000 16.617517 10.499743 -3.070802 -3.212041 -2.018907 1.036776 -2.985328 0.041473 0.923806 0.000000 0.000000 0.000000 0.000000 0.000000 0.000000 0.000000 0.000000 0.000000 -1.149861 -10.356545 15.292377 -0.062963 -0.695957 4.706497 -2.703259 -8.332963 17.741980 -0.904720 0.768782 -18.503450 0.000000 0.000000 0.000000 0.000000 0.000000 0.000000 0.000000 0.000000 0.000000 -1.277325 -5.793023 10.381589 0.068648 0.349311 9.125180 3.850722 -1.035457 17.087858 0.295993 -0.503630 -20.349699 0.000000 0.000000 0.000000 0.000000 0.000000 0.000000 0.000000 0.000000 0.000000 
0.151083 88.900154 2.670834 0.025246 -0.305956 -11.223100 0.962701 0.002628 6.881177 -0.725498 0.328769 3.393682 0.066222 -0.557502 4.776782 -1.150622 0.259004 4.971498 1.698964 0.563619 4.649716 0.349070 1.294374 -3.594794 -0.273505 -0.749552 -19.645233 0.000000 0.000000 0.000000 92.271362 -0.415282 10.317866 68.816071 -21.556910 4.027758 0.125254 16.633589 29.273956 -16.616831 4.751312 -2.835858 15.215128 31.759769 66.783356 -2.990461 -3.432604 -6.453998 -2.061612 -2.224589 -4.321717 0.000000 0.000000 0.000000 -25.542694 -4.503932 13.991007 0.722947 0.535432 0.363356 0.565276 0.078857 0.342938 0.000000 0.000000 0.000000 -24.114702 0.689332 8.901533 0.038210 0.537656 0.099525 0.603059 0.026889 0.088652 0.000000 0.000000 0.000000 -21.449781 8.190481 2.913727 0.650077 -1.040475 -0.228595 0.607373 -0.054433 -0.123265 0.000000 0.000000 0.000000 -19.719507 16.192196 -3.885510 1.003379 -2.033265 -0.707353 0.923778 -0.034385 -0.561533 0.000000 0.000000 0.000000 0.000000 0.000000 0.000000 0.000000 0.000000 0.000000 -90.184929 0.277246 5.753766 -70.455063 17.752174 -3.827115 0.126948 -9.812695 57.018997 25.037655 -2.807595 -6.408352 -14.513834 -32.076271 67.627754 1.932027 1.777056 -3.756159 1.274669 1.245157 -2.594356 0.000000 0.000000 0.000000 27.098392 -13.670477 20.225359 -0.767220 0.540626 -0.291040 -0.721210 0.059161 -0.311675 0.000000 0.000000 0.000000 26.101055 -8.164241 13.473720 -0.817042 0.520798 -0.134420 -0.831033 0.035600 -0.095168 0.000000 0.000000 0.000000 22.288927 0.528947 5.375528 -1.785494 -1.058101 0.305465 -2.047364 -0.047654 0.210136 0.000000 0.000000 0.000000 16.178850 10.571812 -3.081869 -3.238342 -2.018184 1.034712 -3.007759 0.041639 0.923404 0.000000 0.000000 0.000000 0.000000 0.000000 0.000000 0.000000 0.000000 0.000000 -1.187729 -10.361442 15.341410 -0.063433 -0.698804 4.721400 -2.682374 -8.331616 17.730728 -0.908106 0.770593 -18.500572 0.000000 0.000000 0.000000 0.000000 0.000000 0.000000 0.000000 0.000000 0.000000 -1.314210 -5.789328 10.428811 0.068137 0.346606 9.145159 3.866192 -1.017935 17.066612 0.289799 -0.502179 -20.351744 0.000000 0.000000 0.000000 0.000000 0.000000 0.000000 0.000000 0.000000 0.000000 
